. 
  
http://www.torrenting.com/        :     Greatest Movie Tracker on The Net!!!
 
http://www.Torrenting.com          :     Once & For all ;)


               www . Torrenting . Com 

(((((((((((((= Enjoy No RAR releases =))))))))))))))))))))


...................................NFO:....................................

.








































          
          
              
              
                    
                    
                    
                    

All.The.Boys.Love.Mandy.Lane.2006.DVDRip.XviD-SiC

Poster:
[img]http://img651.imageshack.us/img651/9027/alltheboyslovemandylanee.jpg[/img]

IMDB Link:
http://www.imdb.com/title/tt1629377/

Description:
Everyone is dying to be with Mandy Lane. Someone is killing for it.

MediaInfo:
General
Complete name                    : All.The.Boys.Love.Mandy.Lane.2006.DVDRip.XviD-SiC.avi
Format                           : AVI
Format/Info                      : Audio Video Interleave
File size                        : 1.37 GiB
Duration                         : 1h 26mn
Overall bit rate                 : 2 262 Kbps

Video
ID                               : 0
Format                           : MPEG-4 Visual
Format profile                   : Advanced Simple@L5
Format settings, BVOP            : 1
Format settings, QPel            : No
Format settings, GMC             : No warppoints
Format settings, Matrix          : Default (H.263)
Codec ID                         : XVID
Codec ID/Hint                    : XviD
Duration                         : 1h 26mn
Bit rate                         : 1 807 Kbps
Width                            : 720 pixels
Height                           : 304 pixels
Display aspect ratio             : 2.35:1
Frame rate                       : 25.000 fps
Color space                      : YUV
Chroma subsampling               : 4:2:0
Bit depth                        : 8 bits
Scan type                        : Progressive
Compression mode                 : Lossy
Bits/(Pixel*Frame)               : 0.330
Stream size                      : 1.09 GiB (80%)
Writing library                  : XviD 1.2.1 (UTC 2008-12-04)

Audio
ID                               : 1
Format                           : AC-3
Format/Info                      : Audio Coding 3
Mode extension                   : CM (complete main)
Codec ID                         : 2000
Duration                         : 1h 26mn
Bit rate mode                    : Constant
Bit rate                         : 448 Kbps
Channel(s)                       : 6 channels
Channel positions                : Front: L C R, Side: L R, LFE
Sampling rate                    : 48.0 KHz
Bit depth                        : 16 bits
Compression mode                 : Lossy
Stream size                      : 278 MiB (20%)
Alignment                        : Aligned on interleaves
Interleave, duration             : 64 ms (1.60 video frames)
Interleave, preload duration     : 192 ms
Title                            : VTS_01_1 T81 3_2ch 448Kbps DELAY 0ms

Screenshots:
[img]http://img94.imageshack.us/img94/3972/vlcsnap2011080816h29m34.png[/img]
[img]http://img842.imageshack.us/img842/3079/vlcsnap2011080816h29m52.png[/img]
[img]http://img62.imageshack.us/img62/2042/vlcsnap2011080816h30m22.png[/img]
[img]http://img641.imageshack.us/img641/2989/vlcsnap2011080816h30m30.png[/img]
[img]http://img854.imageshack.us/img854/4412/vlcsnap2011080816h30m47.png[/img]

Note: It's criminal that this film STILL hasn't been released in the states yet. One of the best modern slasher films in existence, yet it sits on a shelf while other crap gets splashed across our screens.  

Encoder: thefuzz

Enjoy!

Respects to CaptainHomey, Cyanide, CM8, Rx, THC, ELEKTRI4KA, 
Killerhz, PA, YeFsTe, BoxSlots, MrRep and everyone in the struggle...